# xmcd
#
# Track frame offsets:
#	150
#	9350
#	19324
#	31452
#	43151
#	56304
#	71151
#	85925
#	95996
#	108616
#	119456
#	128930
#	139203
#	150834
#	161421
#	173474
#	189298
#	201928
#	214829
#	226144
#
# Disc length: 3229 seconds
#
# Revision: 1
# Processed by: cddbd v1.4b42PL1 Copyright (c) Steve Scherf et al.
# Submitted via: audiograbber 1.80
#
DISCID=100c9b14
DTITLE=Various Artist - Beach Music Anthology V 3 D 2
DYEAR=1900
DGENRE=
TTITLE0=Tams - Be Younf, Be Follish, Be Happy
TTITLE1=Lenny O'Henry - Across The Street
TTITLE2=Willie Tee - Walking Up A One Way Street
TTITLE3=Jerry Butler - Mr. Dream Merchant
TTITLE4=Intruders - Together
TTITLE5=O'Jay's - Used To Be My Girl
TTITLE6=Cornelius Brother and sister Rose - Too Late To Turn Back Now
TTITLE7=Brenton Wood - Gimme A Little Sign
TTITLE8=Impression - It's All Right
TTITLE9=Falcons - You're So Fine
TTITLE10=James and Bobby Purify - Shake A Tail Feather
TTITLE11=Major Lance - Um, Um, Um, Um, Um, Um, Um,
TTITLE12=Little Anthony and the Imperials - Take Me Back
TTITLE13=Thurston Harris - Little Bitty Pretty One
TTITLE14=Billy Ocean - L.O.D. (Love On Delivery)
TTITLE15=Wild Cherry - 123 Kind Of Love
TTITLE16=Natalie Cole - This Will Be
TTITLE17=Grand Funk Railroad - Bad Time
TTITLE18=Dallas Frazier - Elvira
TTITLE19=Dan Seals - Bop
EXTD=
EXTT0=
EXTT1=
EXTT2=
EXTT3=
EXTT4=
EXTT5=
EXTT6=
EXTT7=
EXTT8=
EXTT9=
EXTT10=
EXTT11=
EXTT12=
EXTT13=
EXTT14=
EXTT15=
EXTT16=
EXTT17=
EXTT18=
EXTT19=
PLAYORDER=
